<?xml version="1.0" encoding="utf-8"?>
<!-- Svg Vector Icons : http://www.onlinewebfonts.com/icon -->
<!DOCTYPE svg PUBLIC "-//W3C//DTD SVG 1.1//EN" "http://www.w3.org/Graphics/SVG/1.1/DTD/svg11.dtd">
<svg version="1.1" xmlns="http://www.w3.org/2000/svg" xmlns:xlink="http://www.w3.org/1999/xlink" x="0px" y="0px" viewBox="0 0 256 256" enable-background="new 0 0 256 256" xml:space="preserve">
<metadata> Svg Vector Icons : http://www.onlinewebfonts.com/icon </metadata>
<g><g><path fill="#000000" d="M128,26.9c55.6,0,101.1,45.5,101.1,101.1c0,55.6-45.5,101.1-101.1,101.1S26.9,183.6,26.9,128C26.9,72.4,72.4,26.9,128,26.9 M128,10C62.3,10,10,63.9,10,128c0,64.1,52.3,118,118,118c65.7,0,118-52.3,118-118C246,62.3,193.7,10,128,10L128,10z"/><path fill="#000000" d="M114.5,187v-42.1h27V187h33.7v-55.6h20.2L128,69l-67.4,62.4h20.2V187H114.5z"/></g></g>
</svg>